<?xml version="1.0" encoding="UTF-8" standalone="no"?>
<svg
   xmlns:dc="http://purl.org/dc/elements/1.1/"
   xmlns:cc="http://creativecommons.org/ns#"
   xmlns:rdf="http://www.w3.org/1999/02/22-rdf-syntax-ns#"
   xmlns:svg="http://www.w3.org/2000/svg"
   xmlns="http://www.w3.org/2000/svg"
   xmlns:sodipodi="http://sodipodi.sourceforge.net/DTD/sodipodi-0.dtd"
   xmlns:inkscape="http://www.inkscape.org/namespaces/inkscape"
   version="1.1"
   width="19.608in"
   height="7.9719999999999995in"
   viewBox=" 0 0 1764.72 717.4799999999999"
   id="svg2"
   inkscape:version="0.48.5 r10040"
   sodipodi:docname="caseplans (1).svg">
  <metadata
     id="metadata32">
    <rdf:RDF>
      <cc:Work
         rdf:about="">
        <dc:format>image/svg+xml</dc:format>
        <dc:type
           rdf:resource="http://purl.org/dc/dcmitype/StillImage" />
        <dc:title></dc:title>
      </cc:Work>
    </rdf:RDF>
  </metadata>
  <defs
     id="defs30" />
  <sodipodi:namedview
     pagecolor="#ffffff"
     bordercolor="#666666"
     borderopacity="1"
     objecttolerance="10"
     gridtolerance="10"
     guidetolerance="10"
     inkscape:pageopacity="0"
     inkscape:pageshadow="2"
     inkscape:window-width="1440"
     inkscape:window-height="900"
     id="namedview28"
     showgrid="false"
     inkscape:zoom="0.50647297"
     inkscape:cx="846.01051"
     inkscape:cy="226.61015"
     inkscape:window-x="-8"
     inkscape:window-y="-8"
     inkscape:window-maximized="1"
     inkscape:current-layer="svg2" />
  <!-- Front-->
  <g
     transform="translate(22.499999999999996, 22.499999999999996) "
     id="g4">
    <polygon
       style="stroke:#000000; fill:none; stroke-width:0.9"
       points="0, 0 72.81000000000002, 0 72.81000000000002, 10.62 145.62000000000003, 10.62 145.62000000000003, 0 199.62000000000003, 0 199.62000000000003, 10.62 253.62000000000003, 10.62 253.62000000000003, 0 307.62, 0 307.62, 10.62 361.62, 10.62 361.62, 0 415.62, 0 415.62, 10.62 469.62, 10.62 469.62, 0 523.62, 0 523.62, 10.62 596.4300000000001, 10.62 596.4300000000001, 0 669.24, 0 669.24, 58.248 658.62, 58.248 658.62, 116.496 669.24, 116.496 669.24, 174.744 658.62, 174.744 658.62, 232.992 669.24, 232.992 669.24, 291.23999999999995 596.4300000000001, 291.23999999999995 596.4300000000001, 280.61999999999995 523.62, 280.61999999999995 523.62, 291.23999999999995 469.62, 291.23999999999995 469.62, 280.61999999999995 415.62, 280.61999999999995 415.62, 291.23999999999995 361.62, 291.23999999999995 361.62, 280.61999999999995 307.62, 280.61999999999995 307.62, 291.23999999999995 253.62000000000003, 291.23999999999995 253.62000000000003, 280.61999999999995 199.62000000000003, 280.61999999999995 199.62000000000003, 291.23999999999995 145.62000000000003, 291.23999999999995 145.62000000000003, 280.61999999999995 72.81000000000002, 280.61999999999995 72.81000000000002, 291.23999999999995 0, 291.24 0, 232.992 10.62, 232.992 10.62, 174.744 0, 174.744 0, 116.496 10.62, 116.496 10.62, 58.248 0, 58.248 "
       id="polygon6" />
  </g>
  <!-- Back-->
  <g
     transform="translate(691.74, 22.499999999999996) "
     id="g8">
    <polygon
       style="stroke:#000000; fill:none; stroke-width:0.9"
       points="0, 0 72.81000000000002, 0 72.81000000000002, 10.62 145.62000000000003, 10.62 145.62000000000003, 0 199.62000000000003, 0 199.62000000000003, 10.62 253.62000000000003, 10.62 253.62000000000003, 0 307.62, 0 307.62, 10.62 361.62, 10.62 361.62, 0 415.62, 0 415.62, 10.62 469.62, 10.62 469.62, 0 523.62, 0 523.62, 10.62 596.4300000000001, 10.62 596.4300000000001, 0 669.24, 0 669.24, 58.248 658.62, 58.248 658.62, 116.496 669.24, 116.496 669.24, 174.744 658.62, 174.744 658.62, 232.992 669.24, 232.992 669.24, 291.23999999999995 596.4300000000001, 291.23999999999995 596.4300000000001, 280.61999999999995 523.62, 280.61999999999995 523.62, 291.23999999999995 469.62, 291.23999999999995 469.62, 280.61999999999995 415.62, 280.61999999999995 415.62, 291.23999999999995 361.62, 291.23999999999995 361.62, 280.61999999999995 307.62, 280.61999999999995 307.62, 291.23999999999995 253.62000000000003, 291.23999999999995 253.62000000000003, 280.61999999999995 199.62000000000003, 280.61999999999995 199.62000000000003, 291.23999999999995 145.62000000000003, 291.23999999999995 145.62000000000003, 280.61999999999995 72.81000000000002, 280.61999999999995 72.81000000000002, 291.23999999999995 0, 291.24 0, 232.992 10.62, 232.992 10.62, 174.744 0, 174.744 0, 116.496 10.62, 116.496 10.62, 58.248 0, 58.248 "
       id="polygon10" />
  </g>
  <!-- Left-->
  <g
     transform="translate(1360.98, 22.499999999999996) "
     id="g12">
    <polygon
       style="stroke:#000000; fill:none; stroke-width:0.9"
       points="10.62, 0 81.81, 0 81.81, 10.62 163.62, 10.62 163.62, 0 217.62, 0 217.62, 10.62 299.43, 10.62 299.43, 0 370.61999999999995, 0 370.61999999999995, 58.248 381.23999999999995, 58.248 381.23999999999995, 116.496 370.61999999999995, 116.496 370.61999999999995, 174.744 381.23999999999995, 174.744 381.23999999999995, 232.992 370.61999999999995, 232.992 370.62, 291.23999999999995 299.43, 291.23999999999995 299.43, 280.61999999999995 217.62, 280.61999999999995 217.62, 291.23999999999995 163.62, 291.23999999999995 163.62, 280.61999999999995 81.81, 280.61999999999995 81.81, 291.23999999999995 10.62, 291.24 10.62, 232.992 0, 232.992 0, 174.744 10.62, 174.744 10.62, 116.496 0, 116.496 0, 58.248 10.62, 58.248 "
       id="polygon14" />
  </g>
  <!-- Right-->
  <g
     transform="translate(1360.98, 313.73999999999995) "
     id="g16">
    <polygon
       style="stroke:#000000; fill:none; stroke-width:0.9"
       points="10.62, 0 81.81, 0 81.81, 10.62 163.62, 10.62 163.62, 0 217.62, 0 217.62, 10.62 299.43, 10.62 299.43, 0 370.61999999999995, 0 370.61999999999995, 58.248 381.23999999999995, 58.248 381.23999999999995, 116.496 370.61999999999995, 116.496 370.61999999999995, 174.744 381.23999999999995, 174.744 381.23999999999995, 232.992 370.61999999999995, 232.992 370.62, 291.23999999999995 299.43, 291.23999999999995 299.43, 280.61999999999995 217.62, 280.61999999999995 217.62, 291.23999999999995 163.62, 291.23999999999995 163.62, 280.61999999999995 81.81, 280.61999999999995 81.81, 291.23999999999995 10.62, 291.24 10.62, 232.992 0, 232.992 0, 174.744 10.62, 174.744 10.62, 116.496 0, 116.496 0, 58.248 10.62, 58.248 "
       id="polygon18" />
  </g>
  <!-- Top-->
  <g
     transform="translate(22.499999999999996, 313.73999999999995) "
     id="g20">
    <polygon
       style="stroke:#000000; fill:none; stroke-width:0.9"
       points="10.62, 10.62 72.81000000000002, 10.62 72.81000000000002, 0 145.62000000000003, 0 145.62000000000003, 10.62 199.62000000000003, 10.62 199.62000000000003, 0 253.62000000000003, 0 253.62000000000003, 10.62 307.62, 10.62 307.62, 0 361.62, 0 361.62, 10.62 415.62, 10.62 415.62, 0 469.62, 0 469.62, 10.62 523.62, 10.62 523.62, 0 596.4300000000001, 0 596.4300000000001, 10.62 658.62, 10.62 658.62, 81.81 669.24, 81.81 669.24, 163.62 658.62, 163.62 658.62, 217.62 669.24, 217.62 669.24, 299.43 658.62, 299.43 658.62, 370.61999999999995 596.4300000000001, 370.61999999999995 596.4300000000001, 381.23999999999995 523.62, 381.23999999999995 523.62, 370.61999999999995 469.62, 370.61999999999995 469.62, 381.23999999999995 415.62, 381.23999999999995 415.62, 370.61999999999995 361.62, 370.61999999999995 361.62, 381.23999999999995 307.62, 381.23999999999995 307.62, 370.61999999999995 253.62000000000003, 370.61999999999995 253.62000000000003, 381.23999999999995 199.62000000000003, 381.23999999999995 199.62000000000003, 370.61999999999995 145.62000000000003, 370.61999999999995 145.62000000000003, 381.23999999999995 72.81000000000002, 381.23999999999995 72.81000000000002, 370.61999999999995 10.62, 370.62 10.62, 299.43 0, 299.43 0, 217.62 10.62, 217.62 10.62, 163.62 0, 163.62 0, 81.81 10.62, 81.81 "
       id="polygon22" />
  </g>
  <!-- Bottom-->
  <g
     transform="translate(691.74, 313.73999999999995) "
     id="g24">
    <polygon
       style="stroke:#000000; fill:none; stroke-width:0.9"
       points="10.62, 10.62 72.81000000000002, 10.62 72.81000000000002, 0 145.62000000000003, 0 145.62000000000003, 10.62 199.62000000000003, 10.62 199.62000000000003, 0 253.62000000000003, 0 253.62000000000003, 10.62 307.62, 10.62 307.62, 0 361.62, 0 361.62, 10.62 415.62, 10.62 415.62, 0 469.62, 0 469.62, 10.62 523.62, 10.62 523.62, 0 596.4300000000001, 0 596.4300000000001, 10.62 658.62, 10.62 658.62, 81.81 669.24, 81.81 669.24, 163.62 658.62, 163.62 658.62, 217.62 669.24, 217.62 669.24, 299.43 658.62, 299.43 658.62, 370.61999999999995 596.4300000000001, 370.61999999999995 596.4300000000001, 381.23999999999995 523.62, 381.23999999999995 523.62, 370.61999999999995 469.62, 370.61999999999995 469.62, 381.23999999999995 415.62, 381.23999999999995 415.62, 370.61999999999995 361.62, 370.61999999999995 361.62, 381.23999999999995 307.62, 381.23999999999995 307.62, 370.61999999999995 253.62000000000003, 370.61999999999995 253.62000000000003, 381.23999999999995 199.62000000000003, 381.23999999999995 199.62000000000003, 370.61999999999995 145.62000000000003, 370.61999999999995 145.62000000000003, 381.23999999999995 72.81000000000002, 381.23999999999995 72.81000000000002, 370.61999999999995 10.62, 370.62 10.62, 299.43 0, 299.43 0, 217.62 10.62, 217.62 10.62, 163.62 0, 163.62 0, 81.81 10.62, 81.81 "
       id="polygon26" />
  </g>
  <text
     xml:space="preserve"
     style="font-size:82.00000223px;font-style:normal;font-variant:normal;font-weight:normal;font-stretch:normal;text-align:center;line-height:125%;letter-spacing:0px;word-spacing:0px;text-anchor:middle;fill:none;stroke:#ff0000;stroke-width:1;font-family:Cambria;-inkscape-font-specification:Cambria"
     x="356.57434"
     y="440.15656"
     id="text3009"
     sodipodi:linespacing="125%"><tspan
       sodipodi:role="line"
       id="tspan3011"
       x="365.44934"
       y="440.15656"
       style="text-align:center;text-anchor:middle;stroke-width:1;font-size:82.00000223px"><tspan
         style="font-style:normal;font-variant:normal;font-weight:bold;font-stretch:normal;text-align:center;text-anchor:middle;fill:none;stroke:#ff0000;stroke-width:1;font-family:Arial;-inkscape-font-specification:Arial Bold;font-size:82.00000223px"
         id="tspan3015"><tspan
           style="font-size:82.00000223px;text-align:center;text-anchor:middle;fill:none;stroke:#ff0000;stroke-width:1"
           id="tspan3017">Cards Against </tspan></tspan></tspan><tspan
       sodipodi:role="line"
       x="365.44934"
       y="520.15656"
       style="text-align:center;text-anchor:middle;stroke-width:1;font-size:82.00000223px"
       id="tspan3026"><tspan
         style="font-style:normal;font-variant:normal;font-weight:bold;font-stretch:normal;text-align:center;text-anchor:middle;fill:none;stroke:#ff0000;stroke-width:1;font-family:Arial;-inkscape-font-specification:Arial Bold;font-size:82.00000223px"
         id="tspan3028"><tspan
           style="font-size:82.00000223px;text-align:center;text-anchor:middle;fill:none;stroke:#ff0000;stroke-width:1"
           id="tspan3030">Humanity </tspan></tspan></tspan></text>
  <text
     xml:space="preserve"
     style="font-size:40px;font-style:normal;font-weight:normal;text-align:center;line-height:125%;letter-spacing:0px;word-spacing:0px;text-anchor:middle;fill:none;stroke:#ff0000;stroke-width:1;font-family:Sans"
     x="361.80267"
     y="631.00732"
     id="text3019"
     sodipodi:linespacing="125%"><tspan
       sodipodi:role="line"
       id="tspan3021"
       x="361.80267"
       y="631.00732"
       style="stroke-width:1">A party game for horrible people</tspan></text>
</svg>
