<?xml version="1.0" encoding="UTF-8" standalone="no"?>
<svg
   xmlns:dc="http://purl.org/dc/elements/1.1/"
   xmlns:cc="http://creativecommons.org/ns#"
   xmlns:rdf="http://www.w3.org/1999/02/22-rdf-syntax-ns#"
   xmlns:svg="http://www.w3.org/2000/svg"
   xmlns="http://www.w3.org/2000/svg"
   xmlns:sodipodi="http://sodipodi.sourceforge.net/DTD/sodipodi-0.dtd"
   xmlns:inkscape="http://www.inkscape.org/namespaces/inkscape"
   version="1.1"
   width="22.1in"
   height="6.7in"
   viewBox=" 0 0 1989.0000000000002 603"
   id="svg2"
   inkscape:version="0.48.5 r10040"
   sodipodi:docname="caseplans.svg">
  <metadata
     id="metadata32">
    <rdf:RDF>
      <cc:Work
         rdf:about="">
        <dc:format>image/svg+xml</dc:format>
        <dc:type
           rdf:resource="http://purl.org/dc/dcmitype/StillImage" />
        <dc:title></dc:title>
      </cc:Work>
    </rdf:RDF>
  </metadata>
  <defs
     id="defs30" />
  <sodipodi:namedview
     pagecolor="#ffffff"
     bordercolor="#666666"
     borderopacity="1"
     objecttolerance="10"
     gridtolerance="10"
     guidetolerance="10"
     inkscape:pageopacity="0"
     inkscape:pageshadow="2"
     inkscape:window-width="1440"
     inkscape:window-height="900"
     id="namedview28"
     showgrid="false"
     inkscape:zoom="0.63549522"
     inkscape:cx="928.18342"
     inkscape:cy="278.10523"
     inkscape:window-x="-8"
     inkscape:window-y="-8"
     inkscape:window-maximized="1"
     inkscape:current-layer="svg2" />
  <!-- Front-->
  <g
     transform="translate(22.499999999999996, 22.499999999999996) "
     id="g4">
    <polygon
       style="stroke:#000000; fill:none; stroke-width:0.9"
       points="0, 0 56.25, 0 56.25, 10.62 112.5, 10.62 112.5, 0 157.5, 0 157.5, 10.62 202.5, 10.62 202.5, 0 247.5, 0 247.5, 10.62 292.5, 10.62 292.5, 0 337.5, 0 337.5, 10.62 382.5, 10.62 382.5, 0 427.5, 0 427.5, 10.62 472.5, 10.62 472.5, 0 517.5, 0 517.5, 10.62 562.5, 10.62 562.5, 0 607.5, 0 607.5, 10.62 652.5, 10.62 652.5, 0 697.5, 0 697.5, 10.62 753.75, 10.62 753.75, 0 810, 0 810, 46.800000000000004 799.38, 46.800000000000004 799.38, 93.60000000000001 810, 93.60000000000001 810, 140.4 799.38, 140.4 799.38, 187.20000000000002 810, 187.20000000000002 810, 234 753.75, 234 753.75, 223.38 697.5, 223.38 697.5, 234 652.5, 234 652.5, 223.38 607.5, 223.38 607.5, 234 562.5, 234 562.5, 223.38 517.5, 223.38 517.5, 234 472.5, 234 472.5, 223.38 427.5, 223.38 427.5, 234 382.5, 234 382.5, 223.38 337.5, 223.38 337.5, 234 292.5, 234 292.5, 223.38 247.5, 223.38 247.5, 234 202.5, 234 202.5, 223.38 157.5, 223.38 157.5, 234 112.5, 234 112.5, 223.38 56.25, 223.38 56.25, 234 0, 234.00000000000003 0, 187.20000000000002 10.62, 187.20000000000002 10.62, 140.4 0, 140.4 0, 93.60000000000001 10.62, 93.60000000000001 10.62, 46.800000000000004 0, 46.800000000000004 "
       id="polygon6" />
  </g>
  <!-- Back-->
  <g
     transform="translate(832.5, 22.499999999999996) "
     id="g8">
    <polygon
       style="stroke:#000000; fill:none; stroke-width:0.9"
       points="0, 0 56.25, 0 56.25, 10.62 112.5, 10.62 112.5, 0 157.5, 0 157.5, 10.62 202.5, 10.62 202.5, 0 247.5, 0 247.5, 10.62 292.5, 10.62 292.5, 0 337.5, 0 337.5, 10.62 382.5, 10.62 382.5, 0 427.5, 0 427.5, 10.62 472.5, 10.62 472.5, 0 517.5, 0 517.5, 10.62 562.5, 10.62 562.5, 0 607.5, 0 607.5, 10.62 652.5, 10.62 652.5, 0 697.5, 0 697.5, 10.62 753.75, 10.62 753.75, 0 810, 0 810, 46.800000000000004 799.38, 46.800000000000004 799.38, 93.60000000000001 810, 93.60000000000001 810, 140.4 799.38, 140.4 799.38, 187.20000000000002 810, 187.20000000000002 810, 234 753.75, 234 753.75, 223.38 697.5, 223.38 697.5, 234 652.5, 234 652.5, 223.38 607.5, 223.38 607.5, 234 562.5, 234 562.5, 223.38 517.5, 223.38 517.5, 234 472.5, 234 472.5, 223.38 427.5, 223.38 427.5, 234 382.5, 234 382.5, 223.38 337.5, 223.38 337.5, 234 292.5, 234 292.5, 223.38 247.5, 223.38 247.5, 234 202.5, 234 202.5, 223.38 157.5, 223.38 157.5, 234 112.5, 234 112.5, 223.38 56.25, 223.38 56.25, 234 0, 234.00000000000003 0, 187.20000000000002 10.62, 187.20000000000002 10.62, 140.4 0, 140.4 0, 93.60000000000001 10.62, 93.60000000000001 10.62, 46.800000000000004 0, 46.800000000000004 "
       id="polygon10" />
  </g>
  <!-- Left-->
  <g
     transform="translate(1642.5, 22.499999999999996) "
     id="g12">
    <polygon
       style="stroke:#000000; fill:none; stroke-width:0.9"
       points="10.62, 0 69.75, 0 69.75, 10.62 139.5, 10.62 139.5, 0 184.5, 0 184.5, 10.62 254.25, 10.62 254.25, 0 313.38, 0 313.38, 46.800000000000004 324, 46.800000000000004 324, 93.60000000000001 313.38, 93.60000000000001 313.38, 140.4 324, 140.4 324, 187.20000000000002 313.38, 187.20000000000002 313.38, 234 254.25, 234 254.25, 223.38 184.5, 223.38 184.5, 234 139.5, 234 139.5, 223.38 69.75, 223.38 69.75, 234 10.62, 234.00000000000003 10.62, 187.20000000000002 0, 187.20000000000002 0, 140.4 10.62, 140.4 10.62, 93.60000000000001 0, 93.60000000000001 0, 46.800000000000004 10.62, 46.800000000000004 "
       id="polygon14" />
  </g>
  <!-- Right-->
  <g
     transform="translate(1642.5, 256.5) "
     id="g16">
    <polygon
       style="stroke:#000000; fill:none; stroke-width:0.9"
       points="10.62, 0 69.75, 0 69.75, 10.62 139.5, 10.62 139.5, 0 184.5, 0 184.5, 10.62 254.25, 10.62 254.25, 0 313.38, 0 313.38, 46.800000000000004 324, 46.800000000000004 324, 93.60000000000001 313.38, 93.60000000000001 313.38, 140.4 324, 140.4 324, 187.20000000000002 313.38, 187.20000000000002 313.38, 234 254.25, 234 254.25, 223.38 184.5, 223.38 184.5, 234 139.5, 234 139.5, 223.38 69.75, 223.38 69.75, 234 10.62, 234.00000000000003 10.62, 187.20000000000002 0, 187.20000000000002 0, 140.4 10.62, 140.4 10.62, 93.60000000000001 0, 93.60000000000001 0, 46.800000000000004 10.62, 46.800000000000004 "
       id="polygon18" />
  </g>
  <!-- Top-->
  <g
     transform="translate(22.499999999999996, 256.5) "
     id="g20">
    <polygon
       style="stroke:#000000; fill:none; stroke-width:0.9"
       points="10.62, 10.62 56.25, 10.62 56.25, 0 112.5, 0 112.5, 10.62 157.5, 10.62 157.5, 0 202.5, 0 202.5, 10.62 247.5, 10.62 247.5, 0 292.5, 0 292.5, 10.62 337.5, 10.62 337.5, 0 382.5, 0 382.5, 10.62 427.5, 10.62 427.5, 0 472.5, 0 472.5, 10.62 517.5, 10.62 517.5, 0 562.5, 0 562.5, 10.62 607.5, 10.62 607.5, 0 652.5, 0 652.5, 10.62 697.5, 10.62 697.5, 0 753.75, 0 753.75, 10.62 799.38, 10.62 799.38, 69.75 810, 69.75 810, 139.5 799.38, 139.5 799.38, 184.5 810, 184.5 810, 254.25 799.38, 254.25 799.38, 313.38 753.75, 313.38 753.75, 324 697.5, 324 697.5, 313.38 652.5, 313.38 652.5, 324 607.5, 324 607.5, 313.38 562.5, 313.38 562.5, 324 517.5, 324 517.5, 313.38 472.5, 313.38 472.5, 324 427.5, 324 427.5, 313.38 382.5, 313.38 382.5, 324 337.5, 324 337.5, 313.38 292.5, 313.38 292.5, 324 247.5, 324 247.5, 313.38 202.5, 313.38 202.5, 324 157.5, 324 157.5, 313.38 112.5, 313.38 112.5, 324 56.25, 324 56.25, 313.38 10.62, 313.38 10.62, 254.25 0, 254.25 0, 184.5 10.62, 184.5 10.62, 139.5 0, 139.5 0, 69.75 10.62, 69.75 "
       id="polygon22" />
  </g>
  <!-- Bottom-->
  <g
     transform="translate(832.5, 256.5) "
     id="g24">
    <polygon
       style="stroke:#000000; fill:none; stroke-width:0.9"
       points="10.62, 10.62 56.25, 10.62 56.25, 0 112.5, 0 112.5, 10.62 157.5, 10.62 157.5, 0 202.5, 0 202.5, 10.62 247.5, 10.62 247.5, 0 292.5, 0 292.5, 10.62 337.5, 10.62 337.5, 0 382.5, 0 382.5, 10.62 427.5, 10.62 427.5, 0 472.5, 0 472.5, 10.62 517.5, 10.62 517.5, 0 562.5, 0 562.5, 10.62 607.5, 10.62 607.5, 0 652.5, 0 652.5, 10.62 697.5, 10.62 697.5, 0 753.75, 0 753.75, 10.62 799.38, 10.62 799.38, 69.75 810, 69.75 810, 139.5 799.38, 139.5 799.38, 184.5 810, 184.5 810, 254.25 799.38, 254.25 799.38, 313.38 753.75, 313.38 753.75, 324 697.5, 324 697.5, 313.38 652.5, 313.38 652.5, 324 607.5, 324 607.5, 313.38 562.5, 313.38 562.5, 324 517.5, 324 517.5, 313.38 472.5, 313.38 472.5, 324 427.5, 324 427.5, 313.38 382.5, 313.38 382.5, 324 337.5, 324 337.5, 313.38 292.5, 313.38 292.5, 324 247.5, 324 247.5, 313.38 202.5, 313.38 202.5, 324 157.5, 324 157.5, 313.38 112.5, 313.38 112.5, 324 56.25, 324 56.25, 313.38 10.62, 313.38 10.62, 254.25 0, 254.25 0, 184.5 10.62, 184.5 10.62, 139.5 0, 139.5 0, 69.75 10.62, 69.75 "
       id="polygon26" />
  </g>
  <text
     xml:space="preserve"
     style="font-size:72px;font-style:normal;font-variant:normal;font-weight:normal;font-stretch:normal;line-height:125%;letter-spacing:0px;word-spacing:0px;fill:none;stroke:#ff0000;stroke-width:1;font-family:Cambria;-inkscape-font-specification:Cambria"
     x="53.501591"
     y="412.59729"
     id="text3009"
     sodipodi:linespacing="125%"><tspan
       sodipodi:role="line"
       id="tspan3011"
       x="53.501591"
       y="412.59729"
       style="stroke-width:1"><tspan
         style="font-style:normal;font-variant:normal;font-weight:bold;font-stretch:normal;fill:none;stroke:#ff0000;stroke-width:1;font-family:Arial;-inkscape-font-specification:Arial Bold"
         id="tspan3015"><tspan
           style="font-size:64px;fill:none;stroke:#ff0000;stroke-width:1"
           id="tspan3017">Cards Against Humanity </tspan></tspan></tspan></text>
  <text
     xml:space="preserve"
     style="font-size:40px;font-style:normal;font-weight:normal;text-align:center;line-height:125%;letter-spacing:0px;word-spacing:0px;text-anchor:middle;fill:none;stroke:#ff0000;stroke-width:1;font-family:Sans"
     x="411.01303"
     y="484.98178"
     id="text3019"
     sodipodi:linespacing="125%"><tspan
       sodipodi:role="line"
       id="tspan3021"
       x="411.01303"
       y="484.98178"
       style="stroke-width:1">A party game for horrible people</tspan></text>
  <text
     xml:space="preserve"
     style="font-size:40px;font-style:normal;font-variant:normal;font-weight:bold;font-stretch:normal;line-height:125%;letter-spacing:0px;word-spacing:0px;fill:none;stroke:#ff0000;stroke-width:1;font-family:Arial;-inkscape-font-specification:Arial Bold"
     x="1156.4874"
     y="596.48401"
     id="text3023"
     sodipodi:linespacing="125%"
     transform="matrix(0.98585317,-0.16761125,0.16761125,0.98585317,0,0)"><tspan
       sodipodi:role="line"
       id="tspan3025"
       x="1156.4874"
       y="596.48401"
       style="stroke-width:1">Tasteful Sideboob</tspan></text>
  <text
     xml:space="preserve"
     style="font-size:48px;font-style:normal;font-weight:normal;line-height:125%;letter-spacing:0px;word-spacing:0px;fill:none;stroke:#ff0000;stroke-width:1;font-family:Sans"
     x="43.705578"
     y="177.63411"
     id="text3027"
     sodipodi:linespacing="125%"
     transform="matrix(0.98751991,-0.15749424,0.15749424,0.98751991,0,0)"><tspan
       sodipodi:role="line"
       id="tspan3029"
       x="43.705578"
       y="177.63411"
       style="font-size:48px;stroke-width:1">8oz of Sweet Mexican </tspan><tspan
       sodipodi:role="line"
       x="43.705578"
       y="237.63411"
       id="tspan3031"
       style="font-size:48px;stroke-width:1">Black Tar Heroin</tspan></text>
  <text
     xml:space="preserve"
     style="font-size:40px;font-style:normal;font-variant:normal;font-weight:bold;font-stretch:normal;line-height:125%;letter-spacing:0px;word-spacing:0px;fill:none;stroke:#ff0000;stroke-width:1;font-family:Arial;-inkscape-font-specification:Arial Bold"
     x="505.52216"
     y="32.521027"
     id="text3033"
     sodipodi:linespacing="125%"
     transform="matrix(0.97366586,0.22797981,-0.22797981,0.97366586,0,0)"><tspan
       sodipodi:role="line"
       id="tspan3035"
       x="505.52216"
       y="32.521027"
       style="stroke-width:1">Old People Smell</tspan></text>
  <text
     xml:space="preserve"
     style="font-size:64px;font-style:normal;font-variant:normal;font-weight:bold;font-stretch:normal;line-height:125%;letter-spacing:0px;word-spacing:0px;fill:none;stroke:#ff0000;stroke-width:1;font-family:Arial;-inkscape-font-specification:Arial Bold"
     x="1375.4261"
     y="1006.8188"
     id="text3037"
     sodipodi:linespacing="125%"
     transform="matrix(0.87789911,-0.47884565,0.47884565,0.87789911,0,0)"><tspan
       sodipodi:role="line"
       id="tspan3039"
       x="1375.4261"
       y="1006.8188"
       style="font-size:64px;stroke-width:1">Queefing</tspan></text>
  <text
     xml:space="preserve"
     style="font-size:40px;font-style:normal;font-variant:normal;font-weight:bold;font-stretch:normal;line-height:125%;letter-spacing:0px;word-spacing:0px;fill:none;stroke:#ff0000;stroke-width:1;font-family:Arial;-inkscape-font-specification:Arial Bold"
     x="840.57404"
     y="296.99133"
     id="text3041"
     sodipodi:linespacing="125%"
     transform="matrix(0.98971941,-0.14302271,0.14302271,0.98971941,0,0)"><tspan
       sodipodi:role="line"
       id="tspan3043"
       x="840.57404"
       y="296.99133"
       style="stroke-width:1">Two midgets shitting in a bucket</tspan></text>
  <text
     xml:space="preserve"
     style="font-size:40px;font-style:normal;font-variant:normal;font-weight:bold;font-stretch:normal;line-height:125%;letter-spacing:0px;word-spacing:0px;fill:none;stroke:#ff0000;stroke-width:1;font-family:Arial;-inkscape-font-specification:Arial Bold"
     x="955.20782"
     y="348.26416"
     id="text3049"
     sodipodi:linespacing="125%"
     transform="matrix(0.99593469,0.09007824,-0.09007824,0.99593469,0,0)"><tspan
       sodipodi:role="line"
       id="tspan3051"
       x="955.20782"
       y="348.26416"
       style="stroke-width:1">Jesus letting a kid die, because </tspan><tspan
       sodipodi:role="line"
       x="955.20782"
       y="398.26416"
       id="tspan3053"
       style="stroke-width:1">the photo only got 998 likes</tspan></text>
  <flowRoot
     xml:space="preserve"
     id="flowRoot3055"
     style="fill:black;stroke:none;stroke-opacity:1;stroke-width:1px;stroke-linejoin:miter;stroke-linecap:butt;fill-opacity:1;font-family:Sans;font-style:normal;font-weight:normal;font-size:40px;line-height:125%;letter-spacing:0px;word-spacing:0px"><flowRegion
       id="flowRegion3057"><rect
         id="rect3059"
         width="223.44778"
         height="118.0182"
         x="742.72784"
         y="776.09338" /></flowRegion><flowPara
       id="flowPara3061"></flowPara></flowRoot>  <text
     xml:space="preserve"
     style="font-size:64px;font-style:normal;font-weight:normal;line-height:125%;letter-spacing:0px;word-spacing:0px;fill:none;stroke:#ff0000;stroke-width:1;font-family:Sans"
     x="1710.4771"
     y="355.94858"
     id="text3063"
     sodipodi:linespacing="125%"><tspan
       sodipodi:role="line"
       id="tspan3065"
       x="1710.4771"
       y="355.94858"
       style="stroke-width:1">Penis </tspan><tspan
       sodipodi:role="line"
       x="1710.4771"
       y="435.94858"
       id="tspan3067"
       style="stroke-width:1">Envy</tspan></text>
  <text
     xml:space="preserve"
     style="font-size:56px;font-style:normal;font-weight:normal;line-height:125%;letter-spacing:0px;word-spacing:0px;fill:none;stroke:#ff0000;stroke-width:1;font-family:Sans"
     x="1137.6954"
     y="201.73813"
     id="text3069"
     sodipodi:linespacing="125%"><tspan
       sodipodi:role="line"
       id="tspan3071"
       x="1137.6954"
       y="201.73813"
       style="stroke-width:1">Sexy Pillow Fights</tspan></text>
</svg>
